<?xml version="1.0" encoding="UTF-8"?>
<svg version="1.1" xmlns="http://www.w3.org/2000/svg" width="139" height="83">
<path d="M0 0 C3.50326271 2.85980629 5.10320079 4.63619352 6 9 C7.50060128 8.10517423 9.00044203 7.20907306 10.5 6.3125 C11.41265625 5.76722656 12.3253125 5.22195312 13.265625 4.66015625 C15.62266248 3.22909778 17.93756749 1.75128855 20.25 0.25 C25.88972279 -3.25790757 31.30913134 -4.94737963 38 -4 C45.67329538 -1.87990583 52.1215485 1.54400755 56.50390625 8.328125 C60.59160512 15.92122945 61.93062439 22.44862977 59.71484375 30.90625 C57.0823663 38.61667577 50.57024175 43.82985305 43.8125 47.9375 C36.82750815 49.88413707 29.13489383 50.42310981 22.4375 47.25 C19.53705794 45.50606332 17.06118074 43.72075857 15 41 C14.62321011 39.34261704 14.28434776 37.67571932 14 36 C13.40574219 36.43570313 12.81148437 36.87140625 12.19921875 37.3203125 C9.49668578 39.26210135 6.76030349 41.14124724 4 43 C3.1234375 43.59425781 2.246875 44.18851563 1.34375 44.80078125 C-5.71739697 49.15169387 -11.77755283 50.32950016 -20 49 C-27.94319567 46.64396738 -33.24007126 41.64010059 -38 35 C-41.47529016 28.48383095 -40.84807791 19.37615231 -39.1875 12.3125 C-36.60023471 5.54864933 -29.90569823 1.16601223 -23.78125 -2.23046875 C-15.24121315 -5.83965099 -7.87856162 -4.18294767 0 0 Z M-24 13 C-24.97474816 16.08961458 -24.97474816 16.08961458 -25 19 C-25.66 19 -26.32 19 -27 19 C-27.45760607 24.7200759 -26.63848132 27.55296727 -23 32 C-19.70048854 35.29951146 -16.6278156 35.92286974 -12 36 C-9.16060333 34.93584783 -6.59110151 33.56812118 -4 32 C-8.01829831 27.46321158 -12.4936444 24.54222705 -18 22 C-18.66 22 -19.32 22 -20 22 C-19.25 15.375 -19.25 15.375 -17 12 C-13.875 11.3125 -13.875 11.3125 -11 11 C-11 10.67 -11 10.34 -11 10 C-16.1708804 9.68974718 -19.71417 9.93869285 -24 13 Z M25 14 C28.31264204 16.20842803 28.83451396 16.19725756 32.5625 15.6875 C33.34753906 15.58824219 34.13257812 15.48898438 34.94140625 15.38671875 C37.05402631 15.08731629 37.05402631 15.08731629 39 14 C40.32860925 13.64830932 41.66158328 13.31229724 43 13 C39.30407672 10.22805754 36.44541377 9.48376509 31.9375 9.62890625 C28.91094406 10.20858934 27.13191452 11.86808548 25 14 Z M45 21 C42.69 21.66 40.38 22.32 38 23 C38.226875 24.051875 38.45375 25.10375 38.6875 26.1875 C39.03180444 30.38801417 38.48772258 31.7162062 36 35 C39.46754912 34.7027815 40.98469519 34.01217428 43.75 31.8125 C46.23404511 28.70744361 46.91225938 26.94832803 47 23 C46.34 22.34 45.68 21.68 45 21 Z M21 29 C21 29.66 21 30.32 21 31 C21.66 30.67 22.32 30.34 23 30 C22.34 29.67 21.68 29.34 21 29 Z " fill="#BE78DE" transform="translate(60,22)"/>
<path d="M0 0 C1.29744141 0.01353516 1.29744141 0.01353516 2.62109375 0.02734375 C3.26175781 0.03894531 3.90242188 0.05054687 4.5625 0.0625 C2.84725527 3.81558136 0.9889072 5.69664741 -2.4375 8.0625 C-3.159375 8.2275 -3.88125 8.3925 -4.625 8.5625 C-6.56487237 8.88711532 -6.56487237 8.88711532 -7.5 10.625 C-8.83528403 14.09673848 -10.15691866 17.57000544 -11.4375 21.0625 C-12.0975 21.0625 -12.7575 21.0625 -13.4375 21.0625 C-12.51328167 26.64429226 -11.71169392 31.03254573 -7.4375 35.0625 C-3.24335 37.55631892 -0.11646167 37.04754456 4.5625 36.0625 C7.85111095 35.2177144 7.85111095 35.2177144 10.5625 34.0625 C11.0575 33.0725 11.0575 33.0725 11.5625 32.0625 C10.2425 31.4025 8.9225 30.7425 7.5625 30.0625 C7.47363816 26.86347361 7.65191469 24.13572544 8.5625 21.0625 C11.49156119 20.19339151 13.04395492 19.85201906 15.91845703 21.01879883 C16.71106934 21.51404053 17.50368164 22.00928223 18.3203125 22.51953125 C19.19300781 23.05513672 20.06570312 23.59074219 20.96484375 24.14257812 C21.86332031 24.71427734 22.76179688 25.28597656 23.6875 25.875 C25.04681641 26.71514648 25.04681641 26.71514648 26.43359375 27.57226562 C29.84471223 29.68715908 33.22295131 31.83613421 36.5625 34.0625 C41.53541948 37.31402427 44.45190021 38.72911089 50.5625 38.0625 C53.88436171 37.15135464 53.88436171 37.15135464 56.5625 36.0625 C56.5625 36.7225 56.5625 37.3825 56.5625 38.0625 C54.8828125 39.3515625 54.8828125 39.3515625 52.6875 40.6875 C51.96820313 41.13351563 51.24890625 41.57953125 50.5078125 42.0390625 C48.5625 43.0625 48.5625 43.0625 46.5625 43.0625 C47.5525 45.5375 47.5525 45.5375 48.5625 48.0625 C50.8725 48.0625 53.1825 48.0625 55.5625 48.0625 C56.0575 47.0725 56.0575 47.0725 56.5625 46.0625 C58.5425 46.0625 60.5225 46.0625 62.5625 46.0625 C55.79077383 51.58020281 49.0534699 51.90339315 40.5625 51.0625 C35.77611633 49.60250247 31.61104446 47.08657868 28.5625 43.0625 C28.18571011 41.40511704 27.84684776 39.73821932 27.5625 38.0625 C26.96824219 38.49820313 26.37398437 38.93390625 25.76171875 39.3828125 C23.05918578 41.32460135 20.32280349 43.20374724 17.5625 45.0625 C16.6859375 45.65675781 15.809375 46.25101563 14.90625 46.86328125 C7.84510303 51.21419387 1.78494717 52.39200016 -6.4375 51.0625 C-14.38069567 48.70646738 -19.67757126 43.70260059 -24.4375 37.0625 C-27.91279016 30.54633095 -27.28557791 21.43865231 -25.625 14.375 C-23.32389999 8.3525038 -17.85604529 4.23986687 -12.4375 1.0625 C-8.26440323 0.17785907 -4.25635746 -0.05830627 0 0 Z " fill="#B873DA" transform="translate(46.4375,19.9375)"/>
<path d="M0 0 C2.34965254 1.80823373 3.39875413 3.43800661 5 6 C4.34 6.33 3.68 6.66 3 7 C3 7.66 3 8.32 3 9 C2.443125 9.09796875 1.88625 9.1959375 1.3125 9.296875 C-4.2079511 10.37858501 -9.2507235 11.89843167 -14 15 C-14.33 15.66 -14.66 16.32 -15 17 C-13.9171875 17.56847656 -12.834375 18.13695313 -11.71875 18.72265625 C-10.31172707 19.50120894 -8.90551836 20.28123439 -7.5 21.0625 C-6.42685547 21.6184082 -6.42685547 21.6184082 -5.33203125 22.18554688 C-3.31316792 23.32956943 -1.64246954 24.35809761 0 26 C0.59375 29.68359375 0.59375 29.68359375 0 33 C-3.00617269 36.00617269 -5.82381598 35.59585316 -10 36 C-10 35.34 -10 34.68 -10 34 C-13.62869458 31.89889584 -17.25827529 29.79933321 -20.88867188 27.70117188 C-22.1226385 26.98772423 -23.35636534 26.27386169 -24.58984375 25.55957031 C-26.36655254 24.53079861 -28.14412859 23.50353987 -29.921875 22.4765625 C-30.99018555 21.85861816 -32.05849609 21.24067383 -33.15917969 20.60400391 C-35.41432111 19.33069013 -37.6691524 18.1260846 -40 17 C-39.05125 16.7525 -38.1025 16.505 -37.125 16.25 C-33.91660268 15.37813351 -33.91660268 15.37813351 -33.109375 13.11328125 C-31.62780085 10.29098683 -29.88864 9.47513353 -27.125 7.9375 C-24.59816266 6.51568257 -22.20623326 5.15852258 -19.90625 3.390625 C-14.76007557 -0.36355143 -6.15634062 -1.26717131 0 0 Z " fill="#B06EDA" transform="translate(98,20)"/>
<path d="M0 0 C3.11448334 1.64538742 5.19612645 3.35879469 7.27734375 6.203125 C7.73598714 9.41362876 7.3080557 11.11098915 6.27734375 14.203125 C4.21484375 15.390625 4.21484375 15.390625 2.27734375 16.203125 C3.12031006 16.67210205 3.96327637 17.1410791 4.83178711 17.62426758 C7.95488844 19.36497327 11.07107327 21.11774653 14.18530273 22.87426758 C15.53467917 23.63311936 16.88591429 24.38867579 18.23901367 25.14086914 C20.18254539 26.22203438 22.11910615 27.31483629 24.0546875 28.41015625 C24.66199203 28.74465286 25.26929657 29.07914948 25.89500427 29.42378235 C30.16347204 31.86150988 30.16347204 31.86150988 31.27734375 35.203125 C33.91734375 34.213125 36.55734375 33.223125 39.27734375 32.203125 C39.60734375 29.893125 39.93734375 27.583125 40.27734375 25.203125 C40.93734375 25.863125 41.59734375 26.523125 42.27734375 27.203125 C41.8227983 32.65767045 41.8227983 32.65767045 39.27734375 35.203125 C43.35698656 33.90157494 43.35698656 33.90157494 47.27734375 32.203125 C46.27734375 35.203125 46.27734375 35.203125 43.15234375 36.890625 C39.38651155 38.3354749 36.32809975 38.7094695 32.27734375 38.203125 C29.75356735 37.07141053 27.62337366 35.70812532 25.27734375 34.203125 C24.57609375 33.873125 23.87484375 33.543125 23.15234375 33.203125 C21.27734375 32.203125 21.27734375 32.203125 19.1015625 30.41015625 C15.93841123 27.93826072 12.68133143 25.90140842 9.21484375 23.890625 C8.60318359 23.51873047 7.99152344 23.14683594 7.36132812 22.76367188 C3.83281733 20.67576542 3.83281733 20.67576542 -0.15625 20.47265625 C-0.93162109 20.83423828 -0.93162109 20.83423828 -1.72265625 21.203125 C-2.05265625 23.843125 -2.38265625 26.483125 -2.72265625 29.203125 C-1.73265625 29.863125 -0.74265625 30.523125 0.27734375 31.203125 C-0.05265625 32.193125 -0.38265625 33.183125 -0.72265625 34.203125 C-2.78515625 34.890625 -2.78515625 34.890625 -4.72265625 35.203125 C-4.06265625 34.213125 -3.40265625 33.223125 -2.72265625 32.203125 C-8.74731239 28.03270085 -8.74731239 28.03270085 -15.22265625 24.640625 C-17.72265625 23.203125 -17.72265625 23.203125 -18.84765625 20.890625 C-18.67287512 17.13283064 -16.97167586 15.13366571 -14.72265625 12.203125 C-16.70265625 12.533125 -18.68265625 12.863125 -20.72265625 13.203125 C-18.57614078 8.5076224 -15.75501237 6.77004774 -11.3671875 4.4140625 C-10.82449219 4.01445312 -10.28179687 3.61484375 -9.72265625 3.203125 C-9.72265625 2.213125 -9.72265625 1.223125 -9.72265625 0.203125 C-13.35265625 0.203125 -16.98265625 0.203125 -20.72265625 0.203125 C-14.98288081 -5.53665044 -6.54030574 -2.86201361 0 0 Z M23.27734375 30.203125 C23.27734375 30.863125 23.27734375 31.523125 23.27734375 32.203125 C23.93734375 31.873125 24.59734375 31.543125 25.27734375 31.203125 C24.61734375 30.873125 23.95734375 30.543125 23.27734375 30.203125 Z " fill="#7F50B3" transform="translate(57.72265625,20.796875)"/>
<path d="M0 0 C1.29744141 0.01353516 1.29744141 0.01353516 2.62109375 0.02734375 C3.26175781 0.03894531 3.90242188 0.05054687 4.5625 0.0625 C2.84725527 3.81558136 0.9889072 5.69664741 -2.4375 8.0625 C-3.159375 8.2275 -3.88125 8.3925 -4.625 8.5625 C-6.58952455 8.89165245 -6.58952455 8.89165245 -7.5625 10.75 C-8.6020348 13.49734197 -9.54688717 16.26343112 -10.4375 19.0625 C-11.4275 18.7325 -12.4175 18.4025 -13.4375 18.0625 C-15.54423879 27.54282457 -15.46270932 35.63589067 -10.53125 44.1015625 C-9.4375 46.0625 -9.4375 46.0625 -9.4375 48.0625 C-15.32902258 47.2428099 -18.52841581 44.39595242 -22.4375 40.0625 C-27.42878613 32.79107202 -27.16637217 25.07569541 -26.140625 16.61328125 C-24.65831788 10.17872078 -20.39811713 6.86096818 -15.421875 2.8125 C-10.5363939 -0.05228473 -5.55152785 -0.07604833 0 0 Z " fill="#C47AE1" transform="translate(46.4375,19.9375)"/>
<path d="M0 0 C3.33149534 1.57146006 5.54912355 3.21107163 8 6 C8.33 6.99 8.66 7.98 9 9 C9.66 9.66 10.32 10.32 11 11 C10.9765625 13.1640625 10.9765625 13.1640625 10.625 15.625 C10.45871094 16.85089844 10.45871094 16.85089844 10.2890625 18.1015625 C10.14597656 19.04128906 10.14597656 19.04128906 10 20 C8.68 19.67 7.36 19.34 6 19 C6.3403125 20.299375 6.3403125 20.299375 6.6875 21.625 C7.0632763 25.68338409 6.05257931 27.55166676 4 31 C0.72724974 31 -1.846632 30.70074844 -5 30 C-4.55527344 29.42636719 -4.11054687 28.85273437 -3.65234375 28.26171875 C2.49160381 19.03879975 1.19863221 10.51527351 0 0 Z " fill="#C67AE2" transform="translate(109,28)"/>
<path d="M0 0 C0.66 0.33 1.32 0.66 2 1 C2 1.66 2 2.32 2 3 C1.34 3 0.68 3 0 3 C0.92421833 8.58179226 1.72580608 12.97004573 6 17 C10.52240099 19.84265205 14.97445497 18.81021859 20 18 C20 18.66 20 19.32 20 20 C16.5980513 22.09350689 13.94727588 22.17942163 10 22 C9.01 24.31 8.02 26.62 7 29 C7.99 29.33 8.98 29.66 10 30 C10 30.66 10 31.32 10 32 C17.04207705 31.2812193 17.04207705 31.2812193 24 30 C20.5873947 33.16229196 18.14413743 33.38135698 13.5625 33.3125 C12.45003906 33.30863281 11.33757813 33.30476563 10.19140625 33.30078125 C7.07162522 33.00675048 4.82065161 32.32333374 2 31 C2.66 30.67 3.32 30.34 4 30 C3.566875 29.27296875 3.13375 28.5459375 2.6875 27.796875 C-2.16218468 19.04049989 -3.60043241 12.00162156 -1 2.25 C-0.67 1.5075 -0.34 0.765 0 0 Z " fill="#633D9F" transform="translate(33,38)"/>
<path d="M0 0 C-1.71524473 3.75308136 -3.5735928 5.63414741 -7 8 C-7.721875 8.165 -8.44375 8.33 -9.1875 8.5 C-11.15202455 8.82915245 -11.15202455 8.82915245 -12.125 10.6875 C-13.1645348 13.43484197 -14.10938717 16.20093112 -15 19 C-17 18 -17 18 -18.125 14.75 C-18.85463482 11.62299365 -19.19234975 9.17377095 -19 6 C-19.66 6 -20.32 6 -21 6 C-21.226875 6.556875 -21.45375 7.11375 -21.6875 7.6875 C-23.35896766 10.63246684 -25.55276352 12.68156544 -28 15 C-28.33 14.01 -28.66 13.02 -29 12 C-25.52636852 6.41198414 -20.0057636 1.77927204 -13.625 0.125 C-9.07947431 -0.03174227 -4.54745997 -0.08234837 0 0 Z " fill="#B974D9" transform="translate(51,20)"/>
<path d="M0 0 C4.18134123 1.5486449 6.75972236 3.10899147 9 7 C10.35801295 10.58021596 10.07281411 14.21366624 10 18 C9.34 16.68 8.68 15.36 8 14 C4.93354577 13.88275652 4.93354577 13.88275652 1.77734375 14.77734375 C-3.24187897 15.07320279 -5.47438968 13.41006816 -9.4375 10.5625 C-10.07365234 10.12873047 -10.70980469 9.69496094 -11.36523438 9.24804688 C-12.9221989 8.18275536 -14.46285562 7.09369635 -16 6 C-10.53317905 0.38931534 -7.72247045 -0.72804435 0 0 Z M-13 5 C-9.68735796 7.20842803 -9.16548604 7.19725756 -5.4375 6.6875 C-4.65246094 6.58824219 -3.86742188 6.48898438 -3.05859375 6.38671875 C-0.94597369 6.08731629 -0.94597369 6.08731629 1 5 C2.32860925 4.64830932 3.66158328 4.31229724 5 4 C1.30407672 1.22805754 -1.55458623 0.48376509 -6.0625 0.62890625 C-9.08905594 1.20858934 -10.86808548 2.86808548 -13 5 Z " fill="#2D2052" transform="translate(98,31)"/>
<path d="M0 0 C1 3.875 1 3.875 1 5 C1.66 5 2.32 5 3 5 C3.33 5.99 3.66 6.98 4 8 C4.66 7.67 5.32 7.34 6 7 C6 7.66 6 8.32 6 9 C6.66 9.33 7.32 9.66 8 10 C2.75864271 14.61239442 -3.272913 15.21074802 -9.984375 15.36328125 C-12.59571835 14.89263216 -13.48894236 14.16698299 -15 12 C-15.10118893 9.21464152 -14.49854208 6.76464243 -14 4 C-12.14375 4.0309375 -12.14375 4.0309375 -10.25 4.0625 C-7.3359175 4.06766681 -4.79046673 3.93015558 -2 3 C-2 2.34 -2 1.68 -2 1 C-1.34 0.67 -0.68 0.34 0 0 Z M-1 6 C-1.33 7.65 -1.66 9.3 -2 11 C-1.01 9.68 -0.02 8.36 1 7 C0.34 6.67 -0.32 6.34 -1 6 Z " fill="#915FCE" transform="translate(55,55)"/>
<path d="M0 0 C1.43791516 0.14168137 2.8753237 0.28851043 4.3125 0.4375 C5.11300781 0.51871094 5.91351563 0.59992187 6.73828125 0.68359375 C9 1 9 1 12 2 C10.02 2.99 10.02 2.99 8 4 C8.84296631 4.46897705 9.68593262 4.9379541 10.55444336 5.42114258 C13.67754469 7.16184827 16.79372952 8.91462153 19.90795898 10.67114258 C21.25733542 11.42999436 22.60857054 12.18555079 23.96166992 12.93774414 C25.90520164 14.01890938 27.8417624 15.11171129 29.77734375 16.20703125 C30.38464828 16.54152786 30.99195282 16.87602448 31.61766052 17.22065735 C35.88612829 19.65838488 35.88612829 19.65838488 37 23 C40.96 21.515 40.96 21.515 45 20 C45.33 17.69 45.66 15.38 46 13 C46.66 13.66 47.32 14.32 48 15 C47.54545455 20.45454545 47.54545455 20.45454545 45 23 C49.07964281 21.69844994 49.07964281 21.69844994 53 20 C52 23 52 23 48.875 24.6875 C45.1091678 26.1323499 42.050756 26.5063445 38 26 C35.4762236 24.86828553 33.34602991 23.50500032 31 22 C30.29875 21.67 29.5975 21.34 28.875 21 C27 20 27 20 25.0546875 18.3125 C19.86699255 14.38524244 14.03343089 11.49336797 8.30859375 8.421875 C7.38691406 7.91140625 6.46523438 7.4009375 5.515625 6.875 C4.67290039 6.41867188 3.83017578 5.96234375 2.96191406 5.4921875 C1 4 1 4 0.21777344 1.8203125 C0.1459082 1.21960937 0.07404297 0.61890625 0 0 Z M29 18 C29 18.66 29 19.32 29 20 C29.66 19.67 30.32 19.34 31 19 C30.34 18.67 29.68 18.34 29 18 Z " fill="#441F6B" transform="translate(52,33)"/>
<path d="M0 0 C1.3271261 3.9813783 1.06915913 7.85045227 1 12 C3.0162233 11.28436734 3.0162233 11.28436734 5 10 C5.80528889 7.94999129 5.80528889 7.94999129 6 6 C8.24406489 9.36609733 8.05346541 11.00470086 7.9375 14.92578125 C8.0254662 17.84515941 8.92312408 20.3078102 10 23 C10.66 23 11.32 23 12 23 C16 29.75 16 29.75 16 32 C10.10847742 31.1803099 6.90908419 28.33345242 3 24 C-1.45907034 17.50391703 -1.70320364 10.67760037 -1 3 C-0.67 2.01 -0.34 1.02 0 0 Z " fill="#C779E1" transform="translate(21,36)"/>
<path d="M0 0 C5.35229058 2.05412233 10.57195033 4.29455426 15 8 C15.75 11.75 15.75 11.75 15 15 C11.99382731 18.00617269 9.17618402 17.59585316 5 18 C5 17.34 5 16.68 5 16 C4.18144531 15.60167969 3.36289063 15.20335937 2.51953125 14.79296875 C1.68808594 14.20128906 0.85664062 13.60960937 0 13 C-0.48828125 9.86328125 -0.48828125 9.86328125 -0.3125 6.3125 C-0.26738281 5.13300781 -0.22226563 3.95351563 -0.17578125 2.73828125 C-0.11777344 1.83464844 -0.05976562 0.93101563 0 0 Z " fill="#A66BD4" transform="translate(83,38)"/>
<path d="M0 0 C-0.66 0.66 -1.32 1.32 -2 2 C-1.6390625 2.57105469 -1.278125 3.14210938 -0.90625 3.73046875 C3.20902633 10.92077101 3.57679986 16.82225976 3 25 C1.6955875 22.48513691 0.69511185 20.13106877 -0.25 17.4375 C-2.34646149 13.31945064 -3.70402676 12.51622585 -8 11 C-11.2366963 10.29241674 -11.2366963 10.29241674 -14 10 C-12 8 -12 8 -8.375 7.875 C-6.704375 7.936875 -6.704375 7.936875 -5 8 C-4.67 7.01 -4.34 6.02 -4 5 C-5.25541557 2.48916886 -6.50063488 2.12874554 -9 1 C-8.67 0.67 -8.34 0.34 -8 0 C-13.44693314 -0.09688221 -18.63904667 -0.12862175 -24 1 C-17.22313302 -5.77686698 -7.75184321 -3.32221852 0 0 Z " fill="#6443A6" transform="translate(106,21)"/>
<path d="M0 0 C7.49122807 -0.36842105 7.49122807 -0.36842105 9.8125 1.3125 C10.204375 1.869375 10.59625 2.42625 11 3 C11.556875 3.556875 12.11375 4.11375 12.6875 4.6875 C13.3371875 5.3371875 13.3371875 5.3371875 14 6 C13.505 6.721875 13.01 7.44375 12.5 8.1875 C10.90651233 11.17528938 10.46151698 12.67935473 11 16 C11.99 16.66 12.98 17.32 14 18 C13.67 18.99 13.34 19.98 13 21 C10.9375 21.6875 10.9375 21.6875 9 22 C9.66 21.01 10.32 20.02 11 19 C10.175 18.2575 9.35 17.515 8.5 16.75 C6 14 6 14 6 10 C4.35 9.67 2.7 9.34 1 9 C-1.125 3.375 -1.125 3.375 0 0 Z " fill="#8F5BC1" transform="translate(44,34)"/>
<path d="M0 0 C1.08152344 -0.01417969 2.16304687 -0.02835938 3.27734375 -0.04296875 C6.0625 0.1875 6.0625 0.1875 8.0625 2.1875 C8.4375 4.625 8.4375 4.625 8.0625 7.1875 C6.5 9.0625 6.5 9.0625 4.0625 10.1875 C-0.05973252 9.96666611 -3.38401554 9.31959068 -6.9375 7.1875 C-6.98004356 5.18795254 -6.97830783 3.18708364 -6.9375 1.1875 C-5.13003866 -0.61996134 -2.43304219 0.01446517 0 0 Z " fill="#B472DC" transform="translate(56.9375,24.8125)"/>
<path d="M0 0 C2.71738275 -0.19110239 4.47660482 -0.29706213 6.87890625 1.06640625 C10.95788379 4.69111251 13.73649463 8.00142565 16 13 C15.67 13.99 15.34 14.98 15 16 C14.9175 15.38125 14.835 14.7625 14.75 14.125 C14.20721701 11.84645565 14.20721701 11.84645565 12.125 10.9375 C11.42375 10.628125 10.7225 10.31875 10 10 C8.97702078 9.02351983 7.97323466 8.0260674 7 7 C7.19529297 8.97033203 7.19529297 8.97033203 7.39453125 10.98046875 C7.53525268 12.71603301 7.67449832 14.45171737 7.8125 16.1875 C7.94688477 17.48397461 7.94688477 17.48397461 8.08398438 18.80664062 C8.55691411 25.30320166 8.55691411 25.30320166 5.51171875 29.11328125 C4.68285156 29.73589844 3.85398437 30.35851562 3 31 C2.67 30.34 2.34 29.68 2 29 C2.33 28.34 2.66 27.68 3 27 C3.66 27 4.32 27 5 27 C5.57614726 16.79579181 5.38542292 9.07828435 0 0 Z " fill="#BC7BE5" transform="translate(103,22)"/>
<path d="M0 0 C1.17755859 -0.02126953 1.17755859 -0.02126953 2.37890625 -0.04296875 C4.4375 0.1875 4.4375 0.1875 6.4375 2.1875 C5.87160156 2.30867188 5.30570313 2.42984375 4.72265625 2.5546875 C3.62244141 2.80605469 3.62244141 2.80605469 2.5 3.0625 C1.76910156 3.22492187 1.03820312 3.38734375 0.28515625 3.5546875 C-1.76950294 4.01711523 -1.76950294 4.01711523 -2.5625 6.1875 C-1.9025 6.5175 -1.2425 6.8475 -0.5625 7.1875 C0.0625 9.75 0.0625 9.75 0.4375 12.1875 C1.7575 12.5175 3.0775 12.8475 4.4375 13.1875 C4.7675 14.8375 5.0975 16.4875 5.4375 18.1875 C3.76082564 17.54641863 2.09660004 16.87278045 0.4375 16.1875 C-0.635 15.754375 -1.7075 15.32125 -2.8125 14.875 C-5.5625 13.1875 -5.5625 13.1875 -6.6875 10.875 C-6.51271887 7.11720564 -4.81151961 5.11804071 -2.5625 2.1875 C-4.5425 2.5175 -6.5225 2.8475 -8.5625 3.1875 C-6.79918655 -0.33912691 -3.55147034 0.02925429 0 0 Z " fill="#56378A" transform="translate(45.5625,30.8125)"/>
<path d="M0 0 C0.33 0 0.66 0 1 0 C2.52977805 7.18995685 1.7242622 13.03642435 -2 19.4375 C-4 22 -4 22 -6 24 C-7.32 24 -8.64 24 -10 24 C-10.33 22.68 -10.66 21.36 -11 20 C-10.34 19.67 -9.68 19.34 -9 19 C-9 19.66 -9 20.32 -9 21 C-6.53686261 19.17251097 -5.16571382 17.77023784 -4.51171875 14.73046875 C-4.27481707 12.48520654 -4.09638651 10.25544422 -4 8 C-3.34 8 -2.68 8 -2 8 C-1.855625 7.4225 -1.71125 6.845 -1.5625 6.25 C-1.04166667 4.16666667 -0.52083333 2.08333333 0 0 Z " fill="#9D5CBB" transform="translate(119,39)"/>
<path d="M0 0 C2.9719385 1.12451727 5.33440687 2.22293791 8 4 C8.3125 7.5 8.3125 7.5 8 11 C4.99382731 14.00617269 2.17618402 13.59585316 -2 14 C-2 13.01 -2 12.02 -2 11 C-0.02 10.34 1.96 9.68 4 9 C2.68 8.67 1.36 8.34 0 8 C0 5.36 0 2.72 0 0 Z " fill="#8258C4" transform="translate(90,42)"/>
<path d="M0 0 C1.3271261 3.9813783 1.06915913 7.85045227 1 12 C2.32 11.34 3.64 10.68 5 10 C4.814375 11.216875 4.62875 12.43375 4.4375 13.6875 C4.01006818 17.02977939 4.07741117 19.71968417 5 23 C5.66 23 6.32 23 7 23 C7.33 23.99 7.66 24.98 8 26 C7.01 26 6.02 26 5 26 C-0.94017105 19.87982377 -1.21919994 13.85279019 -1.16796875 5.70703125 C-1 3 -1 3 0 0 Z " fill="#955DB4" transform="translate(21,36)"/>
<path d="M0 0 C0.66 0.33 1.32 0.66 2 1 C1.67 1.33 1.34 1.66 1 2 C0.95907063 4.33297433 0.95758277 6.66705225 1 9 C1.54269531 9.18175781 2.08539063 9.36351562 2.64453125 9.55078125 C3.35996094 9.80214844 4.07539062 10.05351563 4.8125 10.3125 C5.52019531 10.55613281 6.22789063 10.79976562 6.95703125 11.05078125 C9 12 9 12 10.4375 13.5625 C12.60570608 15.55724959 14.2875464 15.49919132 17.1875 15.6875 C18.08855469 15.75324219 18.98960938 15.81898437 19.91796875 15.88671875 C20.60503906 15.92410156 21.29210937 15.96148437 22 16 C22 16.33 22 16.66 22 17 C12.70242174 17.5578547 6.94029895 16.70522421 -0.5 11.125 C-2.5283379 8.25152131 -2.43966775 6.44406404 -2 3 C-1.34 2.01 -0.68 1.02 0 0 Z " fill="#663D8E" transform="translate(77,54)"/>
<path d="M0 0 C0.66 0 1.32 0 2 0 C2.33 0.99 2.66 1.98 3 3 C3.66 2.67 4.32 2.34 5 2 C5 2.66 5 3.32 5 4 C5.66 4.33 6.32 4.66 7 5 C3.79054398 7.8503026 1.50011452 8.43451699 -2.75 8.6875 C-3.73484375 8.75324219 -4.7196875 8.81898437 -5.734375 8.88671875 C-6.48203125 8.92410156 -7.2296875 8.96148437 -8 9 C-5.84357471 5.95019852 -4.31000923 4.65500462 -1 3 C-0.67 2.01 -0.34 1.02 0 0 Z " fill="#A268CD" transform="translate(56,60)"/>
<path d="M0 0 C1.65 0 3.3 0 5 0 C6.64826111 2.96687001 7.44271087 5.65626525 8 9 C5.125 9.125 5.125 9.125 2 9 C0 7 0 7 -0.125 3.375 C-0.08375 2.26125 -0.0425 1.1475 0 0 Z " fill="#B571DD" transform="translate(77,56)"/>
<path d="M0 0 C0.33 1.32 0.66 2.64 1 4 C1.99 4 2.98 4 4 4 C4 3.34 4 2.68 4 2 C4.99 2.33 5.98 2.66 7 3 C7 3.33 7 3.66 7 4 C9.31 4 11.62 4 14 4 C14.33 3.34 14.66 2.68 15 2 C16.98 2 18.96 2 21 2 C16.2762132 5.99705037 12.0616457 7.25958716 5.9375 6.75 C2.37990219 6.28922679 -0.85560481 5.82577785 -4 4 C-4.33 3.01 -4.66 2.02 -5 1 C-3.35 0.67 -1.7 0.34 0 0 Z " fill="#915DB7" transform="translate(88,64)"/>
<path d="M0 0 C2.31 0.66 4.62 1.32 7 2 C7.04254356 3.99954746 7.04080783 6.00041636 7 8 C6.67 8.33 6.34 8.66 6 9 C5.63837971 10.32594105 5.30271961 11.65938457 5 13 C2.27861205 9.82504739 0.17179575 7.04802169 -1 3 C-0.67 2.01 -0.34 1.02 0 0 Z " fill="#664ABF" transform="translate(33,55)"/>
<path d="M0 0 C0.66 0.33 1.32 0.66 2 1 C2 1.66 2 2.32 2 3 C1.34 3 0.68 3 0 3 C0.25642304 4.91864771 0.53073436 6.83490994 0.8125 8.75 C0.96332031 9.81734375 1.11414062 10.8846875 1.26953125 11.984375 C2.01320407 15.05451094 2.92765472 16.66080478 5 19 C4.071875 18.690625 4.071875 18.690625 3.125 18.375 C2.42375 18.25125 1.7225 18.1275 1 18 C0.34 18.66 -0.32 19.32 -1 20 C-3.51899591 14.96200818 -2.40187844 7.50704417 -1 2.25 C-0.67 1.5075 -0.34 0.765 0 0 Z " fill="#62459E" transform="translate(33,38)"/>
<path d="M0 0 C0 0.99 0 1.98 0 3 C-2.6739124 3.89130413 -5.23723823 4.47731534 -8 5 C-8 4.34 -8 3.68 -8 3 C-11.63 3.33 -15.26 3.66 -19 4 C-18.67 3.34 -18.34 2.68 -18 2 C-11.91259093 0.00775703 -6.37028091 -0.23496938 0 0 Z " fill="#8E5BD0" transform="translate(98,20)"/>
<path d="M0 0 C0 0.33 0 0.66 0 1 C-3.3 1.66 -6.6 2.32 -10 3 C-10 3.99 -10 4.98 -10 6 C-8.35 6.33 -6.7 6.66 -5 7 C-5.66 8.32 -6.32 9.64 -7 11 C-9.64 9.68 -12.28 8.36 -15 7 C-15 6.01 -15 5.02 -15 4 C-10.15425142 -0.34874873 -6.16482758 -0.49318621 0 0 Z " fill="#4D356F" transform="translate(98,31)"/>
<path d="M0 0 C2.31 0.33 4.62 0.66 7 1 C7 2.32 7 3.64 7 5 C6.34 5 5.68 5 5 5 C5 5.66 5 6.32 5 7 C4.34 7 3.68 7 3 7 C3.33 7.99 3.66 8.98 4 10 C3.01 10.495 3.01 10.495 2 11 C0.4375 10 0.4375 10 -1 8 C-0.96726452 5.23385218 -0.49404328 2.73969453 0 0 Z " fill="#8457CD" transform="translate(41,59)"/>
<path d="M0 0 C1.65161581 0.75836443 3.29617138 1.53212076 4.9375 2.3125 C5.85402344 2.74175781 6.77054687 3.17101563 7.71484375 3.61328125 C10 5 10 5 11 8 C12.98 8 14.96 8 17 8 C16.34 8.66 15.68 9.32 15 10 C9.77352518 9.6925603 5.49441311 8.6067596 1 6 C0.0625 2.8125 0.0625 2.8125 0 0 Z M3 3 C3 3.66 3 4.32 3 5 C3.66 4.67 4.32 4.34 5 4 C4.34 3.67 3.68 3.34 3 3 Z " fill="#36185C" transform="translate(78,48)"/>
<path d="M0 0 C0.99 0.33 1.98 0.66 3 1 C3.0825 2.27875 3.165 3.5575 3.25 4.875 C3.45869931 7.05333418 3.45869931 7.05333418 4 9 C5.92064793 10.5899433 5.92064793 10.5899433 8 11 C7.34 11.66 6.68 12.32 6 13 C2.875 12.625 2.875 12.625 0 12 C0 11.34 0 10.68 0 10 C0.66 10 1.32 10 2 10 C1.67 9.4225 1.34 8.845 1 8.25 C-0.24440177 5.45009601 0 3.01754827 0 0 Z " fill="#9A62D3" transform="translate(87,40)"/>
<path d="M0 0 C0.66 0.33 1.32 0.66 2 1 C1.34 2.65 0.68 4.3 0 6 C-1.0828125 5.8453125 -1.0828125 5.8453125 -2.1875 5.6875 C-6.10722045 6.12302449 -7.34955845 8.21006152 -10 11 C-10.99 11 -11.98 11 -13 11 C-11.52358991 7.110714 -9.51237303 5.81340016 -5.9375 3.8125 C-2.77914499 2.16365682 -2.77914499 2.16365682 0 0 Z " fill="#9A5BB7" transform="translate(77,24)"/>
<path d="M0 0 C5.88691157 1.55830012 9.19041802 6.02018362 12.23828125 11.0390625 C13 13 13 13 12 16 C11.9175 15.38125 11.835 14.7625 11.75 14.125 C11.21189267 11.81653196 11.21189267 11.81653196 9 11 C8.34 10.67 7.68 10.34 7 10 C6.855625 9.360625 6.71125 8.72125 6.5625 8.0625 C5.73006262 5.0102296 3.65333665 4.52566858 1 3 C0.67 2.01 0.34 1.02 0 0 Z " fill="#8153A2" transform="translate(106,22)"/>
<path d="M0 0 C1.010625 0.804375 2.02125 1.60875 3.0625 2.4375 C7.52641392 5.62085679 11.48703852 6.37427086 16.9375 5.5625 C17.618125 5.376875 18.29875 5.19125 19 5 C19 5.66 19 6.32 19 7 C15.93753253 8.78409802 13.77920727 9.22880021 10.25 9.125 C9.45078125 9.10695313 8.6515625 9.08890625 7.828125 9.0703125 C7.22484375 9.04710937 6.6215625 9.02390625 6 9 C6 8.01 6 7.02 6 6 C5.38125 5.7525 4.7625 5.505 4.125 5.25 C1.64931313 3.79371361 1.04874998 2.62187494 0 0 Z " fill="#4D2C85" transform="translate(34,51)"/>
<path d="M0 0 C1.125 1.75 1.125 1.75 2 4 C1.125 6.25 1.125 6.25 0 8 C-3.48539917 7.35455571 -6.02819057 5.89865603 -9 4 C-7.68 3.34 -6.36 2.68 -5 2 C-4.34 2.66 -3.68 3.32 -3 4 C-2.34 4 -1.68 4 -1 4 C-0.67 2.68 -0.34 1.36 0 0 Z " fill="#BD77DB" transform="translate(80,40)"/>
<path d="M0 0 C0.66 0.33 1.32 0.66 2 1 C3.11421833 4.64653273 2.94296589 7.33291043 2 11 C1.01 10.67 0.02 10.34 -1 10 C-1 9.34 -1 8.68 -1 8 C-1.66 7.67 -2.32 7.34 -3 7 C-1.125 1.125 -1.125 1.125 0 0 Z " fill="#C07ADF" transform="translate(62,54)"/>
<path d="M0 0 C2.32472205 2.85306797 3.7508258 5.54074837 5 9 C0.68607774 8.5206753 -1.16569547 7.2542015 -4 4 C-3.01 4 -2.02 4 -1 4 C-0.67 2.68 -0.34 1.36 0 0 Z " fill="#A66ECD" transform="translate(32,59)"/>
<path d="M0 0 C0.6875 1.75 0.6875 1.75 1 4 C-0.4375 6.25 -0.4375 6.25 -2 8 C-4.97 7.505 -4.97 7.505 -8 7 C-6.71034824 5.62437146 -5.37310707 4.29233607 -4 3 C-3.34 3 -2.68 3 -2 3 C-2 2.34 -2 1.68 -2 1 C-1.34 0.67 -0.68 0.34 0 0 Z " fill="#A065D4" transform="translate(55,55)"/>
<path d="M0 0 C0.66 0.33 1.32 0.66 2 1 C2 5.29 2 9.58 2 14 C-2 6 -2 6 -2 1 C-1.34 0.67 -0.68 0.34 0 0 Z " fill="#6A47B0" transform="translate(107,32)"/>
<path d="M0 0 C0.99 0.66 1.98 1.32 3 2 C1.02 4.97 1.02 4.97 -1 8 C-1.66 7.67 -2.32 7.34 -3 7 C-3.625 4.4375 -3.625 4.4375 -4 2 C-2.68 1.34 -1.36 0.68 0 0 Z " fill="#B06FDB" transform="translate(97,61)"/>
<path d="M0 0 C0.33 0.66 0.66 1.32 1 2 C-0.6188996 3.03048037 -2.24532489 4.04914678 -3.875 5.0625 C-4.77992187 5.63097656 -5.68484375 6.19945312 -6.6171875 6.78515625 C-7.40351562 7.18605469 -8.18984375 7.58695313 -9 8 C-9.66 7.67 -10.32 7.34 -11 7 C-10 4 -10 4 -7.71484375 2.83203125 C-6.79832031 2.49558594 -5.88179688 2.15914062 -4.9375 1.8125 C-4.01839844 1.46832031 -3.09929687 1.12414063 -2.15234375 0.76953125 C-1.44207031 0.51558594 -0.73179688 0.26164062 0 0 Z " fill="#8858C4" transform="translate(102,56)"/>
<path d="M0 0 C0.33 0 0.66 0 1 0 C2.72107623 11.63856502 2.72107623 11.63856502 0.953125 14.9765625 C-0.4375 16.3125 -0.4375 16.3125 -3 18 C-3.33 17.34 -3.66 16.68 -4 16 C-3.67 15.34 -3.34 14.68 -3 14 C-2.34 14 -1.68 14 -1 14 C-0.67 9.38 -0.34 4.76 0 0 Z " fill="#A56BCC" transform="translate(109,35)"/>
<path d="M0 0 C0.66 0.99 1.32 1.98 2 3 C-0.75 7.875 -0.75 7.875 -3 9 C-3.66 8.34 -4.32 7.68 -5 7 C-4.01 7 -3.02 7 -2 7 C-1.855625 6.21625 -1.71125 5.4325 -1.5625 4.625 C-1 2 -1 2 0 0 Z M-4 9 C-3.34 9.66 -2.68 10.32 -2 11 C-2.99 11.99 -3.98 12.98 -5 14 C-4.67 12.35 -4.34 10.7 -4 9 Z " fill="#AF6ED9" transform="translate(58,52)"/>
<path d="M0 0 C0 3 0 3 -1.25 4.6875 C-3 6 -3 6 -7 6 C-7.33 4.68 -7.66 3.36 -8 2 C-7.34 1.67 -6.68 1.34 -6 1 C-6 1.66 -6 2.32 -6 3 C-4.02 2.01 -2.04 1.02 0 0 Z " fill="#A266BD" transform="translate(116,57)"/>
<path d="M0 0 C1.32 0.66 2.64 1.32 4 2 C3.67 3.98 3.34 5.96 3 8 C1.68 7.67 0.36 7.34 -1 7 C-1.04254356 5.00045254 -1.04080783 2.99958364 -1 1 C-0.67 0.67 -0.34 0.34 0 0 Z " fill="#9C64D0" transform="translate(51,25)"/>
<path d="M0 0 C2.64 0 5.28 0 8 0 C7.67 0.99 7.34 1.98 7 3 C3.71023192 4.09658936 2.28696233 3.79953138 -1 3 C-0.67 2.01 -0.34 1.02 0 0 Z " fill="#7F57B8" transform="translate(44,34)"/>
<path d="M0 0 C1.48117801 0.28127421 2.95993249 0.57533732 4.4375 0.875 C5.67306641 1.11863281 5.67306641 1.11863281 6.93359375 1.3671875 C7.61550781 1.57601563 8.29742187 1.78484375 9 2 C9.33 2.66 9.66 3.32 10 4 C2.25 4.125 2.25 4.125 0 3 C0 2.01 0 1.02 0 0 Z " fill="#7850B0" transform="translate(51,20)"/>
<path d="M0 0 C0.33 0.99 0.66 1.98 1 3 C0.01 4.485 0.01 4.485 -1 6 C-3.46800047 4.84826645 -5.04783565 3.95216435 -7 2 C-2.25 0 -2.25 0 0 0 Z " fill="#C57BE1" transform="translate(70,33)"/>
<path d="M0 0 C1.32 0.33 2.64 0.66 4 1 C4 2.32 4 3.64 4 5 C4.99 5.33 5.98 5.66 7 6 C6.67 7.32 6.34 8.64 6 10 C3.25722422 6.80009492 1.3697164 3.99500618 0 0 Z " fill="#7145BB" transform="translate(32,58)"/>
<path d="M0 0 C0.33 0.66 0.66 1.32 1 2 C1.66 2.33 2.32 2.66 3 3 C-1.75 6 -1.75 6 -4 6 C-4.33 6.99 -4.66 7.98 -5 9 C-5.66 8.01 -6.32 7.02 -7 6 C-3.25 3 -3.25 3 -1 3 C-0.67 2.01 -0.34 1.02 0 0 Z " fill="#B173E0" transform="translate(44,23)"/>
<path d="M0 0 C0.33 1.32 0.66 2.64 1 4 C1.99 4 2.98 4 4 4 C4 4.66 4 5.32 4 6 C0.62537285 5.45276317 -1.08235 4.9451 -4 3 C-4.33 2.34 -4.66 1.68 -5 1 C-3.35 0.67 -1.7 0.34 0 0 Z " fill="#9262CC" transform="translate(88,64)"/>
<path d="M0 0 C0.99 0.33 1.98 0.66 3 1 C3.33 2.98 3.66 4.96 4 7 C3.01 7.33 2.02 7.66 1 8 C0 7 0 7 -0.0625 3.4375 C-0.041875 2.303125 -0.02125 1.16875 0 0 Z " fill="#C37ADF" transform="translate(77,56)"/>
<path d="M0 0 C3.73487777 0.4979837 5.81237635 0.87491756 9 3 C8.67 3.66 8.34 4.32 8 5 C5 4 2 3 -1 2 C-0.67 1.34 -0.34 0.68 0 0 Z " fill="#A670CD" transform="translate(79,54)"/>
<path d="M0 0 C1.9375 0.8125 1.9375 0.8125 4 2 C4.33 2.99 4.66 3.98 5 5 C4.34 5 3.68 5 3 5 C3 5.66 3 6.32 3 7 C2.01 7.33 1.02 7.66 0 8 C0 5.36 0 2.72 0 0 Z " fill="#915FCB" transform="translate(90,42)"/>
<path d="M0 0 C0.66 0 1.32 0 2 0 C2.66 1.98 3.32 3.96 4 6 C2.68 6 1.36 6 0 6 C-0.38218767 4.34385343 -0.71395102 2.67542976 -1 1 C-0.67 0.67 -0.34 0.34 0 0 Z " fill="#8E59D0" transform="translate(45,37)"/>
<path d="M0 0 C2.5 1.375 2.5 1.375 5 3 C5 3.66 5 4.32 5 5 C0.545 4.01 0.545 4.01 -4 3 C-2.68 2.01 -1.36 1.02 0 0 Z " fill="#B17ACF" transform="translate(62,35)"/>
<path d="M0 0 C0.66 0.33 1.32 0.66 2 1 C2.1875 3.375 2.1875 3.375 2 6 C1.01 6.66 0.02 7.32 -1 8 C-1 7.34 -1 6.68 -1 6 C-1.66 5.67 -2.32 5.34 -3 5 C-2.01 3.35 -1.02 1.7 0 0 Z " fill="#955DB3" transform="translate(63,26)"/>
<path d="M0 0 C1 2 1 2 1.375 4.4375 C2.05611374 7.23006635 2.82222306 8.20096687 5 10 C2.68001641 9.60000283 1.13676576 9.09432121 -0.8125 7.75 C-2 6 -2 6 -1.75 3.375 C-1 1 -1 1 0 0 Z " fill="#492F72" transform="translate(41,36)"/>
<path d="M0 0 C1.98 0.66 3.96 1.32 6 2 C6 2.99 6 3.98 6 5 C4.02 5.99 4.02 5.99 2 7 C2.33 5.35 2.66 3.7 3 2 C2.01 2 1.02 2 0 2 C0 1.34 0 0.68 0 0 Z " fill="#B37AD2" transform="translate(73,49)"/>
<path d="M0 0 C0.33 0 0.66 0 1 0 C1.33 3.63 1.66 7.26 2 11 C1.01 11.495 1.01 11.495 0 12 C-1.28571429 3.42857143 -1.28571429 3.42857143 0 0 Z " fill="#B675E1" transform="translate(30,48)"/>
<path d="M0 0 C0.3125 2.3125 0.3125 2.3125 0 5 C-2.5 6.8125 -2.5 6.8125 -5 8 C-3.91891892 0 -3.91891892 0 0 0 Z " fill="#784893" transform="translate(27,27)"/>
<path d="M0 0 C0.66 0.33 1.32 0.66 2 1 C1.34 2.65 0.68 4.3 0 6 C-2.31 6 -4.62 6 -7 6 C-4.83312509 3.72478134 -2.54379491 1.84205838 0 0 Z " fill="#8E56AA" transform="translate(77,24)"/>
<path d="M0 0 C2.64 0.33 5.28 0.66 8 1 C7.34 2.32 6.68 3.64 6 5 C3.69 4.34 1.38 3.68 -1 3 C-0.67 2.01 -0.34 1.02 0 0 Z " fill="#7952BA" transform="translate(98,20)"/>
<path d="M0 0 C0.66 0.66 1.32 1.32 2 2 C1.67 2.66 1.34 3.32 1 4 C-1.32156597 4.40729228 -3.6568787 4.74438677 -6 5 C-6 4.01 -6 3.02 -6 2 C-4.02 1.34 -2.04 0.68 0 0 Z " fill="#9065C4" transform="translate(94,51)"/>
<path d="M0 0 C1.875 0.25 1.875 0.25 4 1 C5.3125 2.875 5.3125 2.875 6 5 C5.67 5.99 5.34 6.98 5 8 C4.87625 7.071875 4.87625 7.071875 4.75 6.125 C4.18741541 3.81562433 4.18741541 3.81562433 1.9375 2.75 C1.298125 2.5025 0.65875 2.255 0 2 C0 1.34 0 0.68 0 0 Z " fill="#905BAA" transform="translate(113,30)"/>
<path d="M0 0 C-2.49505962 2.49505962 -3.67328888 2.35948376 -7.125 2.625 C-8.03507812 2.69976563 -8.94515625 2.77453125 -9.8828125 2.8515625 C-10.93082031 2.92503906 -10.93082031 2.92503906 -12 3 C-11 1 -11 1 -9.2578125 0.33203125 C-8.55398437 0.16058594 -7.85015625 -0.01085937 -7.125 -0.1875 C-6.42632812 -0.36667969 -5.72765625 -0.54585937 -5.0078125 -0.73046875 C-3 -1 -3 -1 0 0 Z " fill="#9061C0" transform="translate(91,21)"/>
<path d="M0 0 C1.65 0.33 3.3 0.66 5 1 C3.515 3.475 3.515 3.475 2 6 C1.01 5.34 0.02 4.68 -1 4 C-0.67 2.68 -0.34 1.36 0 0 Z " fill="#9861D2" transform="translate(89,58)"/>
<path d="M0 0 C1.65 0 3.3 0 5 0 C5.33 1.65 5.66 3.3 6 5 C3.5625 4.1875 3.5625 4.1875 1 3 C0.67 2.01 0.34 1.02 0 0 Z " fill="#7B47AE" transform="translate(45,44)"/>
<path d="M0 0 C2.475 0.99 2.475 0.99 5 2 C3.35 3.32 1.7 4.64 0 6 C-0.66 4.68 -1.32 3.36 -2 2 C-1.34 2 -0.68 2 0 2 C0 1.34 0 0.68 0 0 Z " fill="#985BB2" transform="translate(65,58)"/>
<path d="M0 0 C0.66 0 1.32 0 2 0 C1.67 2.31 1.34 4.62 1 7 C0.01 6.67 -0.98 6.34 -2 6 C-1.125 1.125 -1.125 1.125 0 0 Z " fill="#C672E2" transform="translate(63,58)"/>
<path d="M0 0 C0.99 0.33 1.98 0.66 3 1 C2.34 2.98 1.68 4.96 1 7 C0.34 6.67 -0.32 6.34 -1 6 C-1.625 3.9375 -1.625 3.9375 -2 2 C-1.34 2 -0.68 2 0 2 C0 1.34 0 0.68 0 0 Z " fill="#966AB5" transform="translate(35,32)"/>
</svg>
